{
    "asset" : {
        "generator" : "Khronos glTF Blender I/O v3.2.40",
        "version" : "2.0"
    },
    "scene" : 0,
    "scenes" : [
        {
            "name" : "Scene",
            "nodes" : [
                0,
                1,
                2,
                3
            ]
        }
    ],
    "nodes" : [
        {
            "mesh" : 0,
            "name" : "Helmet_SurfSphere.003",
            "rotation" : [
                0.7071068286895752,
                0,
                0,
                0.7071067094802856
            ]
        },
        {
            "mesh" : 1,
            "name" : "glass_SurfSphere.004",
            "rotation" : [
                0.7071068286895752,
                0,
                0,
                0.7071067094802856
            ]
        },
        {
            "mesh" : 2,
            "name" : "Cylinder_Cylinder.001",
            "rotation" : [
                0.7071068286895752,
                0,
                0,
                0.7071067094802856
            ]
        },
        {
            "mesh" : 3,
            "name" : "Cylinder.001_Cylinder.002",
            "rotation" : [
                0.7071068286895752,
                0,
                0,
                0.7071067094802856
            ]
        }
    ],
    "materials" : [
        {
            "doubleSided" : true,
            "name" : "Material.001",
            "pbrMetallicRoughness" : {
                "baseColorFactor" : [
                    0.800000011920929,
                    0.800000011920929,
                    0.800000011920929,
                    1
                ],
                "metallicFactor" : 0,
                "roughnessFactor" : 0.5
            }
        },
        {
            "doubleSided" : true,
            "name" : "None",
            "pbrMetallicRoughness" : {
                "baseColorFactor" : [
                    0.800000011920929,
                    0.800000011920929,
                    0.800000011920929,
                    1
                ],
                "metallicFactor" : 0,
                "roughnessFactor" : 0.5
            }
        },
        {
            "doubleSided" : true,
            "name" : "Material.002",
            "pbrMetallicRoughness" : {
                "baseColorFactor" : [
                    0.800000011920929,
                    0.800000011920929,
                    0.800000011920929,
                    1
                ],
                "metallicFactor" : 0,
                "roughnessFactor" : 0.5
            }
        }
    ],
    "meshes" : [
        {
            "name" : "Helmet_SurfSphere.003",
            "primitives" : [
                {
                    "attributes" : {
                        "POSITION" : 0,
                        "NORMAL" : 1,
                        "TEXCOORD_0" : 2
                    },
                    "indices" : 3,
                    "material" : 0
                }
            ]
        },
        {
            "name" : "glass_SurfSphere.004",
            "primitives" : [
                {
                    "attributes" : {
                        "POSITION" : 4,
                        "NORMAL" : 5,
                        "TEXCOORD_0" : 6
                    },
                    "indices" : 7,
                    "material" : 0
                }
            ]
        },
        {
            "name" : "Cylinder_Cylinder.001",
            "primitives" : [
                {
                    "attributes" : {
                        "POSITION" : 8,
                        "NORMAL" : 9,
                        "TEXCOORD_0" : 10
                    },
                    "indices" : 11,
                    "material" : 1
                }
            ]
        },
        {
            "name" : "Cylinder.001_Cylinder.002",
            "primitives" : [
                {
                    "attributes" : {
                        "POSITION" : 12,
                        "NORMAL" : 13,
                        "TEXCOORD_0" : 14
                    },
                    "indices" : 15,
                    "material" : 2
                }
            ]
        }
    ],
    "accessors" : [
        {
            "bufferView" : 0,
            "componentType" : 5126,
            "count" : 4222,
            "max" : [
                3.2845139503479004,
                0.9853659868240356,
                0.9100390076637268
            ],
            "min" : [
                1.7154860496520996,
                -0.9684039950370789,
                -0.8413559794425964
            ],
            "type" : "VEC3"
        },
        {
            "bufferView" : 1,
            "componentType" : 5126,
            "count" : 4222,
            "type" : "VEC3"
        },
        {
            "bufferView" : 2,
            "componentType" : 5126,
            "count" : 4222,
            "type" : "VEC2"
        },
        {
            "bufferView" : 3,
            "componentType" : 5123,
            "count" : 23208,
            "type" : "SCALAR"
        },
        {
            "bufferView" : 4,
            "componentType" : 5126,
            "count" : 756,
            "max" : [
                3.2584190368652344,
                0.02625500038266182,
                0.317099004983902
            ],
            "min" : [
                1.7415720224380493,
                -0.9586660265922546,
                -0.0824659988284111
            ],
            "type" : "VEC3"
        },
        {
            "bufferView" : 5,
            "componentType" : 5126,
            "count" : 756,
            "type" : "VEC3"
        },
        {
            "bufferView" : 6,
            "componentType" : 5126,
            "count" : 756,
            "type" : "VEC2"
        },
        {
            "bufferView" : 7,
            "componentType" : 5123,
            "count" : 3552,
            "type" : "SCALAR"
        },
        {
            "bufferView" : 8,
            "componentType" : 5126,
            "count" : 924,
            "max" : [
                3.298367977142334,
                0.715474009513855,
                0.43437299132347107
            ],
            "min" : [
                1.701632022857666,
                0.09512300044298172,
                -0.187608003616333
            ],
            "type" : "VEC3"
        },
        {
            "bufferView" : 9,
            "componentType" : 5126,
            "count" : 924,
            "type" : "VEC3"
        },
        {
            "bufferView" : 10,
            "componentType" : 5126,
            "count" : 924,
            "type" : "VEC2"
        },
        {
            "bufferView" : 11,
            "componentType" : 5123,
            "count" : 3840,
            "type" : "SCALAR"
        },
        {
            "bufferView" : 12,
            "componentType" : 5126,
            "count" : 3090,
            "max" : [
                3.3610990047454834,
                0.7385169863700867,
                0.45972201228141785
            ],
            "min" : [
                1.6389009952545166,
                0.05745299905538559,
                -0.2129569947719574
            ],
            "type" : "VEC3"
        },
        {
            "bufferView" : 13,
            "componentType" : 5126,
            "count" : 3090,
            "type" : "VEC3"
        },
        {
            "bufferView" : 14,
            "componentType" : 5126,
            "count" : 3090,
            "type" : "VEC2"
        },
        {
            "bufferView" : 15,
            "componentType" : 5123,
            "count" : 14184,
            "type" : "SCALAR"
        }
    ],
    "bufferViews" : [
        {
            "buffer" : 0,
            "byteLength" : 50664,
            "byteOffset" : 0
        },
        {
            "buffer" : 0,
            "byteLength" : 50664,
            "byteOffset" : 50664
        },
        {
            "buffer" : 0,
            "byteLength" : 33776,
            "byteOffset" : 101328
        },
        {
            "buffer" : 0,
            "byteLength" : 46416,
            "byteOffset" : 135104
        },
        {
            "buffer" : 0,
            "byteLength" : 9072,
            "byteOffset" : 181520
        },
        {
            "buffer" : 0,
            "byteLength" : 9072,
            "byteOffset" : 190592
        },
        {
            "buffer" : 0,
            "byteLength" : 6048,
            "byteOffset" : 199664
        },
        {
            "buffer" : 0,
            "byteLength" : 7104,
            "byteOffset" : 205712
        },
        {
            "buffer" : 0,
            "byteLength" : 11088,
            "byteOffset" : 212816
        },
        {
            "buffer" : 0,
            "byteLength" : 11088,
            "byteOffset" : 223904
        },
        {
            "buffer" : 0,
            "byteLength" : 7392,
            "byteOffset" : 234992
        },
        {
            "buffer" : 0,
            "byteLength" : 7680,
            "byteOffset" : 242384
        },
        {
            "buffer" : 0,
            "byteLength" : 37080,
            "byteOffset" : 250064
        },
        {
            "buffer" : 0,
            "byteLength" : 37080,
            "byteOffset" : 287144
        },
        {
            "buffer" : 0,
            "byteLength" : 24720,
            "byteOffset" : 324224
        },
        {
            "buffer" : 0,
            "byteLength" : 28368,
            "byteOffset" : 348944
        }
    ],
    "buffers" : [
        {
            "byteLength" : 377312,
            "uri" : "data:application/octet-stream;base64,"
        }
    ]
}
