{
    "asset" : {
        "generator" : "Khronos glTF Blender I/O v3.2.40",
        "version" : "2.0"
    },
    "scene" : 0,
    "scenes" : [
        {
            "name" : "Scene",
            "nodes" : [
                0
            ]
        }
    ],
    "nodes" : [
        {
            "mesh" : 0,
            "name" : "uploads_files_890240_missile+drone",
            "rotation" : [
                0.7071068286895752,
                0,
                0,
                0.7071067094802856
            ],
            "translation" : [
                -1.0144424438476562,
                -149.87010192871094,
                64.5671615600586
            ]
        }
    ],
    "materials" : [
        {
            "doubleSided" : true,
            "name" : "_default_material",
            "pbrMetallicRoughness" : {
                "baseColorFactor" : [
                    0.800000011920929,
                    0.800000011920929,
                    0.800000011920929,
                    1
                ],
                "metallicFactor" : 0,
                "roughnessFactor" : 0.5
            }
        },
        {
            "doubleSided" : true,
            "name" : "Material_1",
            "pbrMetallicRoughness" : {
                "baseColorFactor" : [
                    0.800000011920929,
                    0.800000011920929,
                    0.800000011920929,
                    1
                ],
                "metallicFactor" : 0,
                "roughnessFactor" : 0.5
            }
        },
        {
            "doubleSided" : true,
            "name" : "Material_5",
            "pbrMetallicRoughness" : {
                "baseColorFactor" : [
                    0.800000011920929,
                    0.800000011920929,
                    0.800000011920929,
                    1
                ],
                "metallicFactor" : 0,
                "roughnessFactor" : 0.5
            }
        },
        {
            "doubleSided" : true,
            "name" : "Material_4",
            "pbrMetallicRoughness" : {
                "baseColorFactor" : [
                    0.800000011920929,
                    0.800000011920929,
                    0.800000011920929,
                    1
                ],
                "metallicFactor" : 0,
                "roughnessFactor" : 0.5
            }
        },
        {
            "doubleSided" : true,
            "name" : "Material_3",
            "pbrMetallicRoughness" : {
                "baseColorFactor" : [
                    0.800000011920929,
                    0.800000011920929,
                    0.800000011920929,
                    1
                ],
                "metallicFactor" : 0,
                "roughnessFactor" : 0.5
            }
        },
        {
            "doubleSided" : true,
            "name" : "Material_2",
            "pbrMetallicRoughness" : {
                "baseColorFactor" : [
                    0.800000011920929,
                    0.800000011920929,
                    0.800000011920929,
                    1
                ],
                "metallicFactor" : 0,
                "roughnessFactor" : 0.5
            }
        }
    ],
    "meshes" : [
        {
            "name" : "uploads_files_890240_missile+drone",
            "primitives" : [
                {
                    "attributes" : {
                        "POSITION" : 0,
                        "NORMAL" : 1,
                        "TEXCOORD_0" : 2
                    },
                    "indices" : 3,
                    "material" : 0
                },
                {
                    "attributes" : {
                        "POSITION" : 4,
                        "NORMAL" : 5,
                        "TEXCOORD_0" : 6
                    },
                    "indices" : 7,
                    "material" : 1
                },
                {
                    "attributes" : {
                        "POSITION" : 8,
                        "NORMAL" : 9,
                        "TEXCOORD_0" : 10
                    },
                    "indices" : 11,
                    "material" : 2
                },
                {
                    "attributes" : {
                        "POSITION" : 12,
                        "NORMAL" : 13,
                        "TEXCOORD_0" : 14
                    },
                    "indices" : 15,
                    "material" : 3
                },
                {
                    "attributes" : {
                        "POSITION" : 16,
                        "NORMAL" : 17,
                        "TEXCOORD_0" : 18
                    },
                    "indices" : 19,
                    "material" : 4
                },
                {
                    "attributes" : {
                        "POSITION" : 20,
                        "NORMAL" : 21,
                        "TEXCOORD_0" : 22
                    },
                    "indices" : 15,
                    "material" : 5
                }
            ]
        }
    ],
    "accessors" : [
        {
            "bufferView" : 0,
            "componentType" : 5126,
            "count" : 19271,
            "max" : [
                9.839630126953125,
                3.8739099502563477,
                -182.177001953125
            ],
            "min" : [
                -9.914119720458984,
                -13.955400466918945,
                -185.53599548339844
            ],
            "type" : "VEC3"
        },
        {
            "bufferView" : 1,
            "componentType" : 5126,
            "count" : 19271,
            "type" : "VEC3"
        },
        {
            "bufferView" : 2,
            "componentType" : 5126,
            "count" : 19271,
            "type" : "VEC2"
        },
        {
            "bufferView" : 3,
            "componentType" : 5123,
            "count" : 80304,
            "type" : "SCALAR"
        },
        {
            "bufferView" : 4,
            "componentType" : 5126,
            "count" : 1760,
            "max" : [
                6.952310085296631,
                2.7968900203704834,
                -182.58200073242188
            ],
            "min" : [
                -6.891359806060791,
                -7.509049892425537,
                -183.3509979248047
            ],
            "type" : "VEC3"
        },
        {
            "bufferView" : 5,
            "componentType" : 5126,
            "count" : 1760,
            "type" : "VEC3"
        },
        {
            "bufferView" : 6,
            "componentType" : 5126,
            "count" : 1760,
            "type" : "VEC2"
        },
        {
            "bufferView" : 7,
            "componentType" : 5123,
            "count" : 7560,
            "type" : "SCALAR"
        },
        {
            "bufferView" : 8,
            "componentType" : 5126,
            "count" : 3263,
            "max" : [
                -2.4897398948669434,
                -9.57726001739502,
                -183.1230010986328
            ],
            "min" : [
                -3.8030200004577637,
                -11.224499702453613,
                -184.43699645996094
            ],
            "type" : "VEC3"
        },
        {
            "bufferView" : 9,
            "componentType" : 5126,
            "count" : 3263,
            "type" : "VEC3"
        },
        {
            "bufferView" : 10,
            "componentType" : 5126,
            "count" : 3263,
            "type" : "VEC2"
        },
        {
            "bufferView" : 11,
            "componentType" : 5123,
            "count" : 18000,
            "type" : "SCALAR"
        },
        {
            "bufferView" : 12,
            "componentType" : 5126,
            "count" : 9,
            "max" : [
                1.5404599905014038,
                2.9481201171875,
                -184.45399475097656
            ],
            "min" : [
                -1.5829299688339233,
                -5.978449821472168,
                -185.64100646972656
            ],
            "type" : "VEC3"
        },
        {
            "bufferView" : 13,
            "componentType" : 5126,
            "count" : 9,
            "type" : "VEC3"
        },
        {
            "bufferView" : 14,
            "componentType" : 5126,
            "count" : 9,
            "type" : "VEC2"
        },
        {
            "bufferView" : 15,
            "componentType" : 5123,
            "count" : 24,
            "type" : "SCALAR"
        },
        {
            "bufferView" : 16,
            "componentType" : 5126,
            "count" : 79,
            "max" : [
                0.3669309914112091,
                3.2670199871063232,
                -183.49600219726562
            ],
            "min" : [
                -0.7036510109901428,
                2.1964399814605713,
                -184.5659942626953
            ],
            "type" : "VEC3"
        },
        {
            "bufferView" : 17,
            "componentType" : 5126,
            "count" : 79,
            "type" : "VEC3"
        },
        {
            "bufferView" : 18,
            "componentType" : 5126,
            "count" : 79,
            "type" : "VEC2"
        },
        {
            "bufferView" : 19,
            "componentType" : 5123,
            "count" : 336,
            "type" : "SCALAR"
        },
        {
            "bufferView" : 20,
            "componentType" : 5126,
            "count" : 9,
            "max" : [
                0.48078399896621704,
                3.899930000305176,
                -183.1739959716797
            ],
            "min" : [
                -0.8586859703063965,
                2.8441998958587646,
                -184.54800415039062
            ],
            "type" : "VEC3"
        },
        {
            "bufferView" : 21,
            "componentType" : 5126,
            "count" : 9,
            "type" : "VEC3"
        },
        {
            "bufferView" : 22,
            "componentType" : 5126,
            "count" : 9,
            "type" : "VEC2"
        }
    ],
    "bufferViews" : [
        {
            "buffer" : 0,
            "byteLength" : 231252,
            "byteOffset" : 0
        },
        {
            "buffer" : 0,
            "byteLength" : 231252,
            "byteOffset" : 231252
        },
        {
            "buffer" : 0,
            "byteLength" : 154168,
            "byteOffset" : 462504
        },
        {
            "buffer" : 0,
            "byteLength" : 160608,
            "byteOffset" : 616672
        },
        {
            "buffer" : 0,
            "byteLength" : 21120,
            "byteOffset" : 777280
        },
        {
            "buffer" : 0,
            "byteLength" : 21120,
            "byteOffset" : 798400
        },
        {
            "buffer" : 0,
            "byteLength" : 14080,
            "byteOffset" : 819520
        },
        {
            "buffer" : 0,
            "byteLength" : 15120,
            "byteOffset" : 833600
        },
        {
            "buffer" : 0,
            "byteLength" : 39156,
            "byteOffset" : 848720
        },
        {
            "buffer" : 0,
            "byteLength" : 39156,
            "byteOffset" : 887876
        },
        {
            "buffer" : 0,
            "byteLength" : 26104,
            "byteOffset" : 927032
        },
        {
            "buffer" : 0,
            "byteLength" : 36000,
            "byteOffset" : 953136
        },
        {
            "buffer" : 0,
            "byteLength" : 108,
            "byteOffset" : 989136
        },
        {
            "buffer" : 0,
            "byteLength" : 108,
            "byteOffset" : 989244
        },
        {
            "buffer" : 0,
            "byteLength" : 72,
            "byteOffset" : 989352
        },
        {
            "buffer" : 0,
            "byteLength" : 48,
            "byteOffset" : 989424
        },
        {
            "buffer" : 0,
            "byteLength" : 948,
            "byteOffset" : 989472
        },
        {
            "buffer" : 0,
            "byteLength" : 948,
            "byteOffset" : 990420
        },
        {
            "buffer" : 0,
            "byteLength" : 632,
            "byteOffset" : 991368
        },
        {
            "buffer" : 0,
            "byteLength" : 672,
            "byteOffset" : 992000
        },
        {
            "buffer" : 0,
            "byteLength" : 108,
            "byteOffset" : 992672
        },
        {
            "buffer" : 0,
            "byteLength" : 108,
            "byteOffset" : 992780
        },
        {
            "buffer" : 0,
            "byteLength" : 72,
            "byteOffset" : 992888
        }
    ],
    "buffers" : [
        {
            "byteLength" : 992960,
            "uri" : "data:application/octet-stream;base64,"
        }
    ]
}
