{
    "asset" : {
        "generator" : "Khronos glTF Blender I/O v3.2.40",
        "version" : "2.0"
    },
    "scene" : 0,
    "scenes" : [
        {
            "name" : "Scene",
            "nodes" : [
                0,
                1,
                2,
                3,
                4
            ]
        }
    ],
    "nodes" : [
        {
            "mesh" : 0,
            "name" : "Plane"
        },
        {
            "mesh" : 1,
            "name" : "Plane.001",
            "rotation" : [
                0.015574396587908268,
                -0.12283939868211746,
                -0.26063546538352966,
                0.9574638605117798
            ],
            "translation" : [
                -0.13779617846012115,
                0.10399702936410904,
                -0.05724985897541046
            ]
        },
        {
            "mesh" : 2,
            "name" : "Plane.002",
            "rotation" : [
                -0.017150331288576126,
                0.1352691352367401,
                0.2870083749294281,
                0.9481741786003113
            ],
            "translation" : [
                0.20302177965641022,
                0.01565920189023018,
                0.004751075990498066
            ]
        },
        {
            "mesh" : 3,
            "name" : "Plane.003",
            "translation" : [
                2.600931167602539,
                -0.03816701099276543,
                0.1453617513179779
            ]
        },
        {
            "mesh" : 4,
            "name" : "Text",
            "rotation" : [
                0.6242750287055969,
                0,
                0,
                0.7812046408653259
            ],
            "scale" : [
                0.6204232573509216,
                0.6204232573509216,
                0.6204232573509216
            ],
            "translation" : [
                -1.3369693756103516,
                -0.3983966112136841,
                0.8946943879127502
            ]
        }
    ],
    "materials" : [
        {
            "doubleSided" : true,
            "name" : "Material.001",
            "pbrMetallicRoughness" : {
                "baseColorFactor" : [
                    0.14655044674873352,
                    0.26973575353622437,
                    0.01606694981455803,
                    1
                ],
                "metallicFactor" : 0,
                "roughnessFactor" : 0.5
            }
        },
        {
            "doubleSided" : true,
            "name" : "Material",
            "pbrMetallicRoughness" : {
                "baseColorFactor" : [
                    0,
                    0,
                    0,
                    1
                ],
                "roughnessFactor" : 0.5
            }
        }
    ],
    "meshes" : [
        {
            "name" : "Plane",
            "primitives" : [
                {
                    "attributes" : {
                        "POSITION" : 0,
                        "NORMAL" : 1,
                        "TEXCOORD_0" : 2
                    },
                    "indices" : 3,
                    "material" : 0
                }
            ]
        },
        {
            "name" : "Plane.001",
            "primitives" : [
                {
                    "attributes" : {
                        "POSITION" : 4,
                        "NORMAL" : 5,
                        "TEXCOORD_0" : 6
                    },
                    "indices" : 3,
                    "material" : 0
                }
            ]
        },
        {
            "name" : "Plane.002",
            "primitives" : [
                {
                    "attributes" : {
                        "POSITION" : 7,
                        "NORMAL" : 8,
                        "TEXCOORD_0" : 9
                    },
                    "indices" : 3,
                    "material" : 0
                }
            ]
        },
        {
            "name" : "Plane.003",
            "primitives" : [
                {
                    "attributes" : {
                        "POSITION" : 10,
                        "NORMAL" : 11,
                        "TEXCOORD_0" : 12
                    },
                    "indices" : 3,
                    "material" : 0
                }
            ]
        },
        {
            "name" : "Text",
            "primitives" : [
                {
                    "attributes" : {
                        "POSITION" : 13,
                        "NORMAL" : 14,
                        "TEXCOORD_0" : 15
                    },
                    "indices" : 16,
                    "material" : 1
                }
            ]
        }
    ],
    "accessors" : [
        {
            "bufferView" : 0,
            "componentType" : 5126,
            "count" : 424,
            "max" : [
                0.5230000019073486,
                3.450183868408203,
                1.8471378087997437
            ],
            "min" : [
                -0.5230000019073486,
                1.0127272605895996,
                0.15494859218597412
            ],
            "type" : "VEC3"
        },
        {
            "bufferView" : 1,
            "componentType" : 5126,
            "count" : 424,
            "type" : "VEC3"
        },
        {
            "bufferView" : 2,
            "componentType" : 5126,
            "count" : 424,
            "type" : "VEC2"
        },
        {
            "bufferView" : 3,
            "componentType" : 5123,
            "count" : 660,
            "type" : "SCALAR"
        },
        {
            "bufferView" : 4,
            "componentType" : 5126,
            "count" : 424,
            "max" : [
                0.5230000019073486,
                3.450183868408203,
                1.8471378087997437
            ],
            "min" : [
                -0.5230000019073486,
                1.0127272605895996,
                0.15494859218597412
            ],
            "type" : "VEC3"
        },
        {
            "bufferView" : 5,
            "componentType" : 5126,
            "count" : 424,
            "type" : "VEC3"
        },
        {
            "bufferView" : 6,
            "componentType" : 5126,
            "count" : 424,
            "type" : "VEC2"
        },
        {
            "bufferView" : 7,
            "componentType" : 5126,
            "count" : 424,
            "max" : [
                0.5230000019073486,
                3.450183868408203,
                1.8471378087997437
            ],
            "min" : [
                -0.5230000019073486,
                1.0127272605895996,
                0.15494859218597412
            ],
            "type" : "VEC3"
        },
        {
            "bufferView" : 8,
            "componentType" : 5126,
            "count" : 424,
            "type" : "VEC3"
        },
        {
            "bufferView" : 9,
            "componentType" : 5126,
            "count" : 424,
            "type" : "VEC2"
        },
        {
            "bufferView" : 10,
            "componentType" : 5126,
            "count" : 424,
            "max" : [
                0.5230000019073486,
                3.450183868408203,
                1.8471378087997437
            ],
            "min" : [
                -0.5230000019073486,
                1.0127272605895996,
                0.15494859218597412
            ],
            "type" : "VEC3"
        },
        {
            "bufferView" : 11,
            "componentType" : 5126,
            "count" : 424,
            "type" : "VEC3"
        },
        {
            "bufferView" : 12,
            "componentType" : 5126,
            "count" : 424,
            "type" : "VEC2"
        },
        {
            "bufferView" : 13,
            "componentType" : 5126,
            "count" : 529,
            "max" : [
                4.458000183105469,
                0,
                0.009000000543892384
            ],
            "min" : [
                0.07600000500679016,
                0,
                -0.6910000443458557
            ],
            "type" : "VEC3"
        },
        {
            "bufferView" : 14,
            "componentType" : 5126,
            "count" : 529,
            "type" : "VEC3"
        },
        {
            "bufferView" : 15,
            "componentType" : 5126,
            "count" : 529,
            "type" : "VEC2"
        },
        {
            "bufferView" : 16,
            "componentType" : 5123,
            "count" : 1188,
            "type" : "SCALAR"
        }
    ],
    "bufferViews" : [
        {
            "buffer" : 0,
            "byteLength" : 5088,
            "byteOffset" : 0
        },
        {
            "buffer" : 0,
            "byteLength" : 5088,
            "byteOffset" : 5088
        },
        {
            "buffer" : 0,
            "byteLength" : 3392,
            "byteOffset" : 10176
        },
        {
            "buffer" : 0,
            "byteLength" : 1320,
            "byteOffset" : 13568
        },
        {
            "buffer" : 0,
            "byteLength" : 5088,
            "byteOffset" : 14888
        },
        {
            "buffer" : 0,
            "byteLength" : 5088,
            "byteOffset" : 19976
        },
        {
            "buffer" : 0,
            "byteLength" : 3392,
            "byteOffset" : 25064
        },
        {
            "buffer" : 0,
            "byteLength" : 5088,
            "byteOffset" : 28456
        },
        {
            "buffer" : 0,
            "byteLength" : 5088,
            "byteOffset" : 33544
        },
        {
            "buffer" : 0,
            "byteLength" : 3392,
            "byteOffset" : 38632
        },
        {
            "buffer" : 0,
            "byteLength" : 5088,
            "byteOffset" : 42024
        },
        {
            "buffer" : 0,
            "byteLength" : 5088,
            "byteOffset" : 47112
        },
        {
            "buffer" : 0,
            "byteLength" : 3392,
            "byteOffset" : 52200
        },
        {
            "buffer" : 0,
            "byteLength" : 6348,
            "byteOffset" : 55592
        },
        {
            "buffer" : 0,
            "byteLength" : 6348,
            "byteOffset" : 61940
        },
        {
            "buffer" : 0,
            "byteLength" : 4232,
            "byteOffset" : 68288
        },
        {
            "buffer" : 0,
            "byteLength" : 2376,
            "byteOffset" : 72520
        }
    ],
    "buffers" : [
        {
            "byteLength" : 74896,
            "uri" : "data:application/octet-stream;base64,"
        }
    ]
}
