{
    "asset" : {
        "generator" : "Khronos glTF Blender I/O v3.2.40",
        "version" : "2.0"
    },
    "scene" : 0,
    "scenes" : [
        {
            "name" : "Scene",
            "nodes" : [
                0
            ]
        }
    ],
    "nodes" : [
        {
            "mesh" : 0,
            "name" : "Cylinder.002",
            "scale" : [
                0.3709999918937683,
                1.2000000476837158,
                0.29249998927116394
            ],
            "translation" : [
                2.963406801223755,
                1.3358783721923828,
                -11.246149063110352
            ]
        }
    ],
    "materials" : [
        {
            "doubleSided" : true,
            "name" : "Material.003",
            "pbrMetallicRoughness" : {}
        },
        {
            "doubleSided" : true,
            "name" : "Material",
            "pbrMetallicRoughness" : {
                "baseColorFactor" : [
                    0.12622861564159393,
                    0,
                    0.002457954455167055,
                    1
                ],
                "metallicFactor" : 0,
                "roughnessFactor" : 0.4000000059604645
            }
        },
        {
            "doubleSided" : true,
            "name" : "Material.004",
            "pbrMetallicRoughness" : {
                "metallicFactor" : 0,
                "roughnessFactor" : 0.5
            }
        },
        {
            "doubleSided" : true,
            "name" : "Material.002",
            "pbrMetallicRoughness" : {
                "metallicFactor" : 0,
                "roughnessFactor" : 0.5
            }
        },
        {
            "doubleSided" : true,
            "name" : "Material.001",
            "pbrMetallicRoughness" : {
                "baseColorFactor" : [
                    0.940235435962677,
                    0.940235435962677,
                    0.940235435962677,
                    1
                ],
                "metallicFactor" : 0,
                "roughnessFactor" : 0.5
            }
        }
    ],
    "meshes" : [
        {
            "name" : "Cylinder.002",
            "primitives" : [
                {
                    "attributes" : {
                        "POSITION" : 0,
                        "NORMAL" : 1,
                        "TEXCOORD_0" : 2
                    },
                    "indices" : 3,
                    "material" : 0
                },
                {
                    "attributes" : {
                        "POSITION" : 4,
                        "NORMAL" : 5,
                        "TEXCOORD_0" : 6
                    },
                    "indices" : 7,
                    "material" : 1
                },
                {
                    "attributes" : {
                        "POSITION" : 8,
                        "NORMAL" : 9,
                        "TEXCOORD_0" : 10
                    },
                    "indices" : 11,
                    "material" : 2
                },
                {
                    "attributes" : {
                        "POSITION" : 12,
                        "NORMAL" : 13,
                        "TEXCOORD_0" : 14
                    },
                    "indices" : 11,
                    "material" : 3
                },
                {
                    "attributes" : {
                        "POSITION" : 15,
                        "NORMAL" : 16,
                        "TEXCOORD_0" : 17
                    },
                    "indices" : 18,
                    "material" : 4
                }
            ]
        }
    ],
    "accessors" : [
        {
            "bufferView" : 0,
            "componentType" : 5126,
            "count" : 320,
            "max" : [
                1,
                1,
                1
            ],
            "min" : [
                -1,
                -1,
                -1
            ],
            "type" : "VEC3"
        },
        {
            "bufferView" : 1,
            "componentType" : 5126,
            "count" : 320,
            "type" : "VEC3"
        },
        {
            "bufferView" : 2,
            "componentType" : 5126,
            "count" : 320,
            "type" : "VEC2"
        },
        {
            "bufferView" : 3,
            "componentType" : 5123,
            "count" : 564,
            "type" : "SCALAR"
        },
        {
            "bufferView" : 4,
            "componentType" : 5126,
            "count" : 8216,
            "max" : [
                2.1380271911621094,
                3.812906265258789,
                44.33254623413086
            ],
            "min" : [
                -8.643644332885742,
                1.0007489919662476,
                -4.214458465576172
            ],
            "type" : "VEC3"
        },
        {
            "bufferView" : 5,
            "componentType" : 5126,
            "count" : 8216,
            "type" : "VEC3"
        },
        {
            "bufferView" : 6,
            "componentType" : 5126,
            "count" : 8216,
            "type" : "VEC2"
        },
        {
            "bufferView" : 7,
            "componentType" : 5123,
            "count" : 12324,
            "type" : "SCALAR"
        },
        {
            "bufferView" : 8,
            "componentType" : 5126,
            "count" : 320,
            "max" : [
                -6.545170307159424,
                0.9999999403953552,
                1.6920089721679688
            ],
            "min" : [
                -8.545169830322266,
                -0.9999999403953552,
                -0.30799102783203125
            ],
            "type" : "VEC3"
        },
        {
            "bufferView" : 9,
            "componentType" : 5126,
            "count" : 320,
            "type" : "VEC3"
        },
        {
            "bufferView" : 10,
            "componentType" : 5126,
            "count" : 320,
            "type" : "VEC2"
        },
        {
            "bufferView" : 11,
            "componentType" : 5123,
            "count" : 564,
            "type" : "SCALAR"
        },
        {
            "bufferView" : 12,
            "componentType" : 5126,
            "count" : 320,
            "max" : [
                1.4103212356567383,
                0.9999999403953552,
                40.198402404785156
            ],
            "min" : [
                -0.5896787643432617,
                -0.9999999403953552,
                38.198402404785156
            ],
            "type" : "VEC3"
        },
        {
            "bufferView" : 13,
            "componentType" : 5126,
            "count" : 320,
            "type" : "VEC3"
        },
        {
            "bufferView" : 14,
            "componentType" : 5126,
            "count" : 320,
            "type" : "VEC2"
        },
        {
            "bufferView" : 15,
            "componentType" : 5126,
            "count" : 320,
            "max" : [
                -5.744202136993408,
                0.9999999403953552,
                40.198402404785156
            ],
            "min" : [
                -7.744202136993408,
                -0.9999999403953552,
                38.198402404785156
            ],
            "type" : "VEC3"
        },
        {
            "bufferView" : 16,
            "componentType" : 5126,
            "count" : 320,
            "type" : "VEC3"
        },
        {
            "bufferView" : 17,
            "componentType" : 5126,
            "count" : 320,
            "type" : "VEC2"
        },
        {
            "bufferView" : 18,
            "componentType" : 5123,
            "count" : 564,
            "type" : "SCALAR"
        }
    ],
    "bufferViews" : [
        {
            "buffer" : 0,
            "byteLength" : 3840,
            "byteOffset" : 0
        },
        {
            "buffer" : 0,
            "byteLength" : 3840,
            "byteOffset" : 3840
        },
        {
            "buffer" : 0,
            "byteLength" : 2560,
            "byteOffset" : 7680
        },
        {
            "buffer" : 0,
            "byteLength" : 1128,
            "byteOffset" : 10240
        },
        {
            "buffer" : 0,
            "byteLength" : 98592,
            "byteOffset" : 11368
        },
        {
            "buffer" : 0,
            "byteLength" : 98592,
            "byteOffset" : 109960
        },
        {
            "buffer" : 0,
            "byteLength" : 65728,
            "byteOffset" : 208552
        },
        {
            "buffer" : 0,
            "byteLength" : 24648,
            "byteOffset" : 274280
        },
        {
            "buffer" : 0,
            "byteLength" : 3840,
            "byteOffset" : 298928
        },
        {
            "buffer" : 0,
            "byteLength" : 3840,
            "byteOffset" : 302768
        },
        {
            "buffer" : 0,
            "byteLength" : 2560,
            "byteOffset" : 306608
        },
        {
            "buffer" : 0,
            "byteLength" : 1128,
            "byteOffset" : 309168
        },
        {
            "buffer" : 0,
            "byteLength" : 3840,
            "byteOffset" : 310296
        },
        {
            "buffer" : 0,
            "byteLength" : 3840,
            "byteOffset" : 314136
        },
        {
            "buffer" : 0,
            "byteLength" : 2560,
            "byteOffset" : 317976
        },
        {
            "buffer" : 0,
            "byteLength" : 3840,
            "byteOffset" : 320536
        },
        {
            "buffer" : 0,
            "byteLength" : 3840,
            "byteOffset" : 324376
        },
        {
            "buffer" : 0,
            "byteLength" : 2560,
            "byteOffset" : 328216
        },
        {
            "buffer" : 0,
            "byteLength" : 1128,
            "byteOffset" : 330776
        }
    ],
    "buffers" : [
        {
            "byteLength" : 331904,
            "uri" : "data:application/octet-stream;base64,"
        }
    ]
}
