{
    "asset" : {
        "generator" : "Khronos glTF Blender I/O v3.2.40",
        "version" : "2.0"
    },
    "scene" : 0,
    "scenes" : [
        {
            "name" : "Scene",
            "nodes" : [
                0,
                1
            ]
        }
    ],
    "nodes" : [
        {
            "mesh" : 0,
            "name" : "TEXT.005",
            "rotation" : [
                0.45869046449661255,
                0.5332182049751282,
                -0.46356141567230225,
                0.538880467414856
            ],
            "scale" : [
                6.611175060272217,
                6.611175537109375,
                6.611175060272217
            ],
            "translation" : [
                6.8646440505981445,
                -7.759273529052734,
                8.068283081054688
            ]
        },
        {
            "mesh" : 1,
            "name" : "Plane.005",
            "rotation" : [
                0.5570557117462158,
                0.519152045249939,
                -0.4275134801864624,
                0.4872395098209381
            ],
            "scale" : [
                29.167409896850586,
                29.16741180419922,
                29.167417526245117
            ],
            "translation" : [
                -13.140172004699707,
                25.404590606689453,
                -1.6526641845703125
            ]
        }
    ],
    "materials" : [
        {
            "doubleSided" : true,
            "name" : "Material.004",
            "pbrMetallicRoughness" : {
                "baseColorFactor" : [
                    0,
                    0,
                    0,
                    1
                ],
                "roughnessFactor" : 0.5
            }
        },
        {
            "doubleSided" : true,
            "name" : "Material.001",
            "pbrMetallicRoughness" : {
                "baseColorTexture" : {
                    "index" : 0
                },
                "metallicFactor" : 0,
                "roughnessFactor" : 0.5
            }
        }
    ],
    "meshes" : [
        {
            "name" : "NUCLEUS.005",
            "primitives" : [
                {
                    "attributes" : {
                        "POSITION" : 0,
                        "NORMAL" : 1,
                        "TEXCOORD_0" : 2
                    },
                    "indices" : 3,
                    "material" : 0
                }
            ]
        },
        {
            "name" : "Plane.002",
            "primitives" : [
                {
                    "attributes" : {
                        "POSITION" : 4,
                        "NORMAL" : 5,
                        "TEXCOORD_0" : 6
                    },
                    "indices" : 7,
                    "material" : 1
                }
            ]
        }
    ],
    "textures" : [
        {
            "sampler" : 0,
            "source" : 0
        }
    ],
    "images" : [
        {
            "bufferView" : 8,
            "mimeType" : "image/jpeg",
            "name" : "7080"
        }
    ],
    "accessors" : [
        {
            "bufferView" : 0,
            "componentType" : 5126,
            "count" : 1603,
            "max" : [
                4.425000190734863,
                0,
                0.009000000543892384
            ],
            "min" : [
                0.07600000500679016,
                0,
                -0.6910000443458557
            ],
            "type" : "VEC3"
        },
        {
            "bufferView" : 1,
            "componentType" : 5126,
            "count" : 1603,
            "type" : "VEC3"
        },
        {
            "bufferView" : 2,
            "componentType" : 5126,
            "count" : 1603,
            "type" : "VEC2"
        },
        {
            "bufferView" : 3,
            "componentType" : 5123,
            "count" : 3564,
            "type" : "SCALAR"
        },
        {
            "bufferView" : 4,
            "componentType" : 5126,
            "count" : 2278,
            "max" : [
                0.5990157127380371,
                0.04715216904878616,
                0.9463324546813965
            ],
            "min" : [
                -0.5966545939445496,
                0,
                -0.9600925445556641
            ],
            "type" : "VEC3"
        },
        {
            "bufferView" : 5,
            "componentType" : 5126,
            "count" : 2278,
            "type" : "VEC3"
        },
        {
            "bufferView" : 6,
            "componentType" : 5126,
            "count" : 2278,
            "type" : "VEC2"
        },
        {
            "bufferView" : 7,
            "componentType" : 5123,
            "count" : 4368,
            "type" : "SCALAR"
        }
    ],
    "bufferViews" : [
        {
            "buffer" : 0,
            "byteLength" : 19236,
            "byteOffset" : 0
        },
        {
            "buffer" : 0,
            "byteLength" : 19236,
            "byteOffset" : 19236
        },
        {
            "buffer" : 0,
            "byteLength" : 12824,
            "byteOffset" : 38472
        },
        {
            "buffer" : 0,
            "byteLength" : 7128,
            "byteOffset" : 51296
        },
        {
            "buffer" : 0,
            "byteLength" : 27336,
            "byteOffset" : 58424
        },
        {
            "buffer" : 0,
            "byteLength" : 27336,
            "byteOffset" : 85760
        },
        {
            "buffer" : 0,
            "byteLength" : 18224,
            "byteOffset" : 113096
        },
        {
            "buffer" : 0,
            "byteLength" : 8736,
            "byteOffset" : 131320
        },
        {
            "buffer" : 0,
            "byteLength" : 56495,
            "byteOffset" : 140056
        }
    ],
    "samplers" : [
        {
            "magFilter" : 9729,
            "minFilter" : 9987
        }
    ],
    "buffers" : [
        {
            "byteLength" : 196552,
            "uri" : "data:application/octet-stream;base64,"
        }
    ]
}
